<svg viewBox="0 0 32 32" xml:space="preserve" xmlns="http://www.w3.org/2000/svg" enable-background="new 0 0 32 32"><g id="Gem"><path d="M20.469 11.595v1.174l5.363-3.866a2.255 2.255 0 0 0-.7-.829L17.303 2.42A2.237 2.237 0 0 0 16 2v6.365l4.469 3.23z" fill="#ff1f48" class="fill-ace4e5"></path><path d="m25.832 8.903-5.363 3.866v6.483a676.882 676.882 0 0 1 5.352 3.855 2.2 2.2 0 0 0 .237-.991V9.883a2.18 2.18 0 0 0-.226-.98z" fill="#d61138" class="fill-6fa7ab"></path><path d="M20.469 20.405 16 23.635V30c.452 0 .915-.14 1.303-.42l7.829-5.654c.302-.215.538-.495.689-.818a719.21 719.21 0 0 0-5.352-3.855v1.152z" fill="#c21135" class="fill-659899"></path><path d="M11.531 20.405v-1.174l-5.363 3.866c.162.323.398.614.7.829l7.829 5.654c.388.28.851.42 1.303.42v-6.365l-4.469-3.23z" fill="#ff1f48" class="fill-ace4e5"></path><path d="M11.531 12.802a516.712 516.712 0 0 1-5.363-3.888 2.13 2.13 0 0 0-.226.969v12.234c0 .345.075.678.226.98l5.363-3.866v-6.429z" fill="#fc4163" class="fill-e3fafc"></path><path d="m16 8.365-4.469 3.23v8.81L16 23.635l4.469-3.23V11.595z" fill="#dc143c" class="fill-b9f3f8"></path><path d="M11.531 11.595 16 8.365V2c-.452 0-.915.14-1.303.42L6.868 8.074c-.302.226-.55.506-.7.84a512.42 512.42 0 0 0 5.363 3.888v-1.207z" fill="#fa5c7c" class="fill-ddf1f2"></path></g></svg>