<?xml version="1.0" ?><svg style="enable-background:new 0 0 32 32;" version="1.1" viewBox="0 0 32 32" xml:space="preserve" xmlns="http://www.w3.org/2000/svg" xmlns:xlink="http://www.w3.org/1999/xlink"><style type="text/css">
	.st0{fill:#B9F3F8;}
	.st1{fill:#55C1FA;}
	.st2{fill:#FBC34E;}
	.st3{opacity:0.05;}
	.st4{fill:#FFFFFF;}
	.st5{fill:#7A442A;}
	.st6{fill:#C77C58;}
	.st7{fill:#E4EDF2;}
	.st8{fill:#F25949;}
	.st9{fill:#FA9B55;}
	.st10{fill:#E5A533;}
	.st11{fill:#6FA7AB;}
	.st12{fill:#20A56C;}
	.st13{fill:#F2C09E;}
	.st14{fill:#F4E8D0;}
	.st15{fill:#F2AB38;}
	.st16{fill:#393B3D;}
	.st17{fill:#ACE4E5;}
	.st18{fill:#659899;}
	.st19{fill:#E3FAFC;}
	.st20{fill:#DDF1F2;}
	.st21{fill:#16F293;}
	.st22{fill:#5C3320;}
	.st23{fill:#AD410D;}
	.st24{fill:#8B9CA5;}
	.st25{fill:#B26C50;}
	.st26{fill:none;}
	.st27{fill:#DAE1E5;}
	.st28{fill:#425158;}
	.st29{fill:#829299;}
	.st30{fill:#A5795C;}
	.st31{fill:#7A7468;}
	.st32{fill:#7B3ABF;}
	.st33{fill:#B564FF;}
	.st34{fill:#2B617D;}
</style><g id="Magnifier"/><g id="Gear"/><g id="Home"/><g id="Shield"/><g id="Star"/><g id="Flash"/><g id="Heart"/><g id="Hearts"/><g id="Shopping_Bag"/><g id="Token"/><g id="Warning"/><g id="Warning_B"/><g id="Chat"/><g id="Diamond"/><g id="Hanger"/><g id="Warning_C"/><g id="Potion"/><g id="Hourglass"/><g id="Trophy"/><g id="Bomb"/><g id="Gem"><g><path class="st17" d="M20.469,11.595v1.174l5.363-3.866c-0.162-0.323-0.398-0.614-0.7-0.829L17.303,2.42    C16.915,2.14,16.452,2,16,2v6.365L20.469,11.595z"/><path class="st11" d="M25.832,8.903l-5.363,3.866v6.483c2.585,1.852,4.685,3.36,5.352,3.855c0.151-0.302,0.237-0.635,0.237-0.991    V9.883C26.058,9.538,25.983,9.205,25.832,8.903z"/><path class="st18" d="M20.469,20.405L16,23.635V30c0.452,0,0.915-0.14,1.303-0.42l7.829-5.654    c0.302-0.215,0.538-0.495,0.689-0.818c-0.668-0.495-2.768-2.003-5.352-3.855V20.405z"/><path class="st17" d="M11.531,20.405v-1.174l-5.363,3.866c0.162,0.323,0.398,0.614,0.7,0.829l7.829,5.654    C15.085,29.86,15.548,30,16,30v-6.365L11.531,20.405z"/><path class="st19" d="M11.531,12.802C8.935,10.938,6.846,9.42,6.168,8.914C6.017,9.215,5.942,9.538,5.942,9.883v12.234    c0,0.345,0.075,0.678,0.226,0.98l5.363-3.866V12.802z"/><polygon class="st0" points="16,8.365 11.531,11.595 11.531,12.802 11.531,19.231 11.531,20.405 16,23.635 20.469,20.405     20.469,19.252 20.469,12.769 20.469,11.595   "/><path class="st20" d="M11.531,11.595L16,8.365V2c-0.452,0-0.915,0.14-1.303,0.42L6.868,8.074C6.566,8.3,6.318,8.58,6.168,8.914    c0.678,0.506,2.768,2.025,5.363,3.888V11.595z"/></g></g><g id="Spell_Book"/><g id="User"/><g id="Users"/><g id="Treasure_Chest"/><g id="Treasure_Chest_Open"/><g id="Sack"/><g id="Fishing_Pin"/><g id="Sword"/><g id="Sword_And_Shield"/><g id="Backpack"/><g id="Key"/><g id="Meat"/><g id="Skull"/><g id="Store"/><g id="Helmet"/><g id="Anvil"/><g id="Axe"/><g id="Spear"/><g id="Food"/><g id="Bow"/><g id="Scroll"/><g id="Armor"/><g id="Hat"/><g id="Wand"/><g id="Map"/><g id="Mushroom"/><g id="Feather"/><g id="Wings"/><g id="Fish"/></svg>